<svg id="Filled" xmlns="http://www.w3.org/2000/svg" viewBox="0 0 512 501"><defs><style>.cls-1{fill:#c67c4e;}.cls-2{fill:#fff;}</style></defs><path class="cls-1" d="M480,192a64,64,0,0,0-64-64H352c0-70.69-25.31-117-96-117S156,57.31,156,128H92a64,64,0,0,0-64,64L0,405.33A106.8,106.8,0,0,0,106.67,512H405.33A106.8,106.8,0,0,0,512,405.33ZM198.67,128c0-47.13,10.2-74.33,57.33-74.33s53.33,27.2,53.33,74.33Z" transform="translate(0 -11)"/><circle class="cls-2" cx="171.84" cy="197.84" r="12.6"/><circle class="cls-2" cx="339.24" cy="197.84" r="12.6"/></svg>