<?xml version="1.0" encoding="utf-8"?>
<!-- Generator: Adobe Illustrator 26.0.3, SVG Export Plug-In . SVG Version: 6.00 Build 0)  -->
<svg version="1.1" id="Layer_1" xmlns="http://www.w3.org/2000/svg" xmlns:xlink="http://www.w3.org/1999/xlink" x="0px" y="0px"
	 viewBox="0 0 462 512.1" style="enable-background:new 0 0 462 512.1;" xml:space="preserve">
<style type="text/css">
	.st0{fill:#C67C4E;}
</style>
<path class="st0" d="M84.3,368.5h293.5c31.1,0,56.2-25.1,56.3-56.2c0-6.5-1.1-13-3.4-19.2l-53.5-147.8
	C358.4,77.8,297,31.1,226.9,31.1l0,0c-73.1,0-136.4,50.8-152.3,122.1L30.6,295.7c-9.2,29.7,7.5,61.2,37.2,70.3
	C73.1,367.6,78.7,368.5,84.3,368.5z"/>
<path class="st0" d="M141.1,406c10.3,50.7,59.8,83.5,110.5,73.2c36.9-7.5,65.7-36.3,73.2-73.2H141.1z"/>
</svg>
