<?xml version="1.0" encoding="utf-8"?>
<!-- Generator: Adobe Illustrator 26.0.3, SVG Export Plug-In . SVG Version: 6.00 Build 0)  -->
<svg version="1.1" id="Layer_1" xmlns="http://www.w3.org/2000/svg" xmlns:xlink="http://www.w3.org/1999/xlink" x="0px" y="0px"
	 viewBox="0 0 472 522.1" style="enable-background:new 0 0 472 522.1;" xml:space="preserve">
<style type="text/css">
	.st0{fill:none;stroke:#A0A0A0;stroke-width:20;stroke-miterlimit:10;}
</style>
<path class="st0" d="M79.9,380.7h312.3c33,0,59.9-26.8,59.9-59.8c0-7-1.2-13.9-3.6-20.4l-56.9-157.3
	c-20-71.8-85.3-121.5-159.9-121.5l0,0c-77.8,0-145.2,54-162.1,130L22.7,303.2c-9.7,31.6,8,65.1,39.5,74.8
	C68,379.8,73.9,380.7,79.9,380.7z"/>
<path class="st0" d="M140.4,420.6c11,54,63.6,88.8,117.6,77.9c39.3-8,69.9-38.6,77.9-77.9H140.4z"/>
</svg>
