<?xml version="1.0" encoding="utf-8"?>
<!-- Generator: Adobe Illustrator 26.0.3, SVG Export Plug-In . SVG Version: 6.00 Build 0)  -->
<svg version="1.1" id="Layer_1" xmlns="http://www.w3.org/2000/svg" xmlns:xlink="http://www.w3.org/1999/xlink" x="0px" y="0px"
	 viewBox="0 0 512 512.1" style="enable-background:new 0 0 512 512.1;" xml:space="preserve">
<style type="text/css">
	.st0{fill:#C67C4E;}
</style>
<path class="st0" d="M453.5,132.1L414,105.3L311.2,36c-33.3-22.6-77.1-22.6-110.5,0L62.5,129.3c-27.2,18.4-43.5,49-43.5,81.9v183.2
	c0.1,54.5,44.2,98.7,98.8,98.8h39.5c10.9,0,19.8-8.8,19.8-19.7c0,0,0,0,0,0V295.6c0-10.9,8.8-19.7,19.7-19.8h118.5
	c10.9,0,19.7,8.9,19.7,19.8v177.8c0,10.9,8.8,19.7,19.7,19.7c0,0,0,0,0,0h39.5c54.5-0.1,98.7-44.2,98.8-98.8V211.1
	C493,180.1,478.4,150.8,453.5,132.1z"/>
</svg>
